# xmcd
# 
# Track frame offsets:
#     150
#     19432
#     36562
#     59562
# 
# Disc length: 1022
# 
# Revision: 1
# Processed by: cddbd v1.5.2PL0 Copyright (c) Steve Scherf et al.
# Submitted via: fre:ac v1.0.31
# 
DISCID=3903fc04
DTITLE=陳百強 - 留住夕陽
DYEAR=1989
DGENRE=Pop
TTITLE0=留住夕陽
TTITLE1=眼淚為你流
TTITLE2=GREATEST LOVE OF ALL
TTITLE3=偏偏喜歡你
EXTD=
EXTT0=
EXTT1=
EXTT2=
EXTT3=
PLAYORDER=
